<svg width="32" height="32" viewBox="0 0 32 32" fill="none" xmlns="http://www.w3.org/2000/svg">
<path fill-rule="evenodd" clip-rule="evenodd" d="M28.3089 13.5372H25.5225C25.7255 14.3249 25.8462 15.1483 25.8462 16C25.8462 21.4375 21.4375 25.8462 16 25.8462C10.5625 25.8462 6.15385 21.4375 6.15385 16C6.15385 15.1483 6.27446 14.3249 6.47754 13.5372H3.69108V27.0769C3.69108 27.7551 4.24246 28.3065 4.92308 28.3065H27.0769C27.7575 28.3065 28.3089 27.7551 28.3089 27.0769V13.5372ZM28.3089 4.92308C28.3089 4.24369 27.7575 3.69231 27.0769 3.69231H23.3846C22.7052 3.69231 22.1538 4.24369 22.1538 4.92308V8.61539C22.1538 9.29477 22.7052 9.84615 23.3846 9.84615H27.0769C27.7575 9.84615 28.3089 9.29477 28.3089 8.61539V4.92308ZM16 9.84615C12.6006 9.84615 9.84615 12.6006 9.84615 16C9.84615 19.3982 12.6006 22.1538 16 22.1538C19.3982 22.1538 22.1538 19.3982 22.1538 16C22.1538 12.6006 19.3982 9.84615 16 9.84615ZM28.3089 32H3.69108C1.65292 32 0 30.3458 0 28.3065V3.69231C0 1.65292 1.65292 0 3.69108 0H28.3089C30.3471 0 32 1.65292 32 3.69231V28.3065C32 30.3458 30.3471 32 28.3089 32Z" fill="#FF7E03"/>
</svg>
