<svg width="121" height="45" viewBox="0 0 121 45" fill="none" xmlns="http://www.w3.org/2000/svg">
<path d="M75.235 19.5915V22.0325H65.7482V9.06262H68.6846V19.5915H75.235Z" fill="white"/>
<path d="M85.7533 19.118C85.4523 20.126 84.8939 20.9093 84.0783 21.4679C83.275 22.0265 82.315 22.3059 81.1983 22.3059C79.7048 22.3059 78.4999 21.8566 77.5844 20.9579C76.6805 20.0592 76.2286 18.8691 76.2286 17.3875C76.2286 15.9303 76.6871 14.728 77.6033 13.7808C78.5188 12.8335 79.6858 12.3599 81.1043 12.3599C82.5723 12.3599 83.7393 12.8457 84.6053 13.8172C85.4712 14.7766 85.9042 16.082 85.9042 17.7336V17.9887H78.9394C78.9518 18.8023 79.153 19.4217 79.5415 19.8467C79.9431 20.2718 80.5015 20.4843 81.2173 20.4843C82.1583 20.4843 82.8172 20.0289 83.1934 19.118H85.7533ZM83.1934 16.3492C83.1307 15.7299 82.9237 15.2259 82.5723 14.8373C82.221 14.4365 81.7319 14.2362 81.1043 14.2362C80.5146 14.2362 80.0248 14.4244 79.6363 14.8008C79.247 15.1773 79.0145 15.6934 78.9394 16.3492H83.1934Z" fill="white"/>
<path d="M96.4684 22.0326H93.7575C93.6693 21.7898 93.6066 21.4861 93.5695 21.1218C92.7538 21.9112 91.7056 22.3059 90.4257 22.3059C89.3469 22.3059 88.4991 22.057 87.8847 21.559C87.2695 21.049 86.9619 20.3507 86.9619 19.4641C86.9619 19.0634 87.0121 18.7112 87.1127 18.4077C87.2257 18.104 87.4014 17.849 87.6397 17.6426C87.8905 17.4361 88.123 17.2661 88.3366 17.1325C88.5626 16.999 88.8694 16.8896 89.2587 16.8046C89.6479 16.7196 89.9613 16.6589 90.1997 16.6225C90.4381 16.5739 90.7712 16.5253 91.1976 16.4768C92.1386 16.3553 92.7662 16.2278 93.0796 16.0942C93.4062 15.9606 93.5695 15.7117 93.5695 15.3473C93.5695 14.5094 92.9856 14.0904 91.8186 14.0904C91.2041 14.0904 90.7522 14.1997 90.4636 14.4183C90.1749 14.6247 89.9869 14.9952 89.8987 15.5295H87.3948C87.5457 13.4164 89.0451 12.3599 91.8937 12.3599C94.7175 12.3599 96.1294 13.38 96.1294 15.4202V19.4824C96.1294 20.6725 96.2424 21.5226 96.4684 22.0326ZM93.5505 17.4604C93.2371 17.6426 92.6095 17.8065 91.6685 17.9522C90.8776 18.0737 90.363 18.2255 90.1246 18.4077C89.8484 18.6384 89.7106 18.9541 89.7106 19.3548C89.7106 19.7435 89.836 20.0532 90.0867 20.2839C90.3506 20.5025 90.7143 20.6118 91.1786 20.6118C91.8937 20.6118 92.4652 20.4296 92.8916 20.0653C93.3311 19.6889 93.5505 19.1727 93.5505 18.517V17.4604Z" fill="white"/>
<path d="M104.548 12.4692V14.8555C104.172 14.7826 103.826 14.7462 103.513 14.7462C102.634 14.7462 101.988 15.0194 101.574 15.5659C101.16 16.1003 100.953 16.8228 100.953 17.7337V22.0327H98.2797V12.6331H100.821V14.3637C101.461 13.0643 102.508 12.4146 103.965 12.4146C104.09 12.4146 104.285 12.4328 104.548 12.4692Z" fill="white"/>
<path d="M115.038 22.0325H112.327V16.5494C112.327 15.8815 112.214 15.3775 111.988 15.0375C111.762 14.6853 111.323 14.5092 110.67 14.5092C109.264 14.5092 108.562 15.335 108.562 16.9866V22.0325H105.908V12.6329H108.449V13.9445C109.252 12.9001 110.325 12.3779 111.668 12.3779C112.709 12.3779 113.532 12.6694 114.134 13.2523C114.736 13.8352 115.038 14.6671 115.038 15.7479V22.0325Z" fill="white"/>
<path d="M77.155 25.0018V32.7984C77.155 34.6564 76.6907 36.0287 75.7621 36.9152C74.8465 37.7895 73.4091 38.2267 71.4518 38.2267C69.469 38.2267 68.007 37.7835 67.0659 36.897C66.1372 35.9983 65.6729 34.62 65.6729 32.7619V25.0018H68.6094V32.7619C68.6094 33.8184 68.8164 34.6018 69.2306 35.1118C69.6447 35.6218 70.3977 35.8769 71.4894 35.8769C72.5435 35.8769 73.259 35.6218 73.6351 35.1118C74.0243 34.6018 74.2189 33.8184 74.2189 32.7619V25.0018H77.155Z" fill="white"/>
<path d="M81.9403 28.5721V29.7379C82.643 28.7907 83.6467 28.317 84.9522 28.317C86.257 28.317 87.3051 28.7725 88.096 29.6832C88.8862 30.5941 89.282 31.8085 89.282 33.3265C89.282 34.7959 88.8927 35.98 88.1142 36.8786C87.3489 37.7651 86.3328 38.2084 85.0652 38.2084C83.7597 38.2084 82.7625 37.7408 82.0723 36.8058V41.3051H79.4183V28.5721H81.9403ZM84.2933 30.3937C83.5658 30.3937 82.9943 30.6487 82.5803 31.1588C82.1787 31.6688 81.9782 32.3792 81.9782 33.2901C81.9782 34.2008 82.1852 34.9113 82.5993 35.4214C83.0133 35.9314 83.584 36.1864 84.3122 36.1864C85.0273 36.1864 85.5856 35.9314 85.9873 35.4214C86.4013 34.9113 86.6083 34.213 86.6083 33.3265C86.6083 32.4157 86.4013 31.6992 85.9873 31.177C85.5732 30.6548 85.0083 30.3937 84.2933 30.3937Z" fill="white"/>
<path d="M32.6066 2.04541L25.7551 5.94748L47.1291 17.9074L54.079 14.0054L32.6066 2.04541Z" fill="white"/>
<path d="M18.8705 16.131L25.722 12.229L47.1944 24.189L40.2445 28.091L18.8705 16.131Z" fill="white"/>
<path d="M5.10242 30.2483L11.9539 26.3462L33.426 38.3062L33.3604 32.0251L40.3103 28.1228V34.436L26.4763 42.2082L5.10242 30.2483Z" fill="white"/>
<path d="M47.1289 17.9079L54.0788 14.0059V20.319L47.1946 24.1893L47.1289 17.9079Z" fill="white"/>
</svg>