<svg width="32" height="32" viewBox="0 0 32 32" fill="none" xmlns="http://www.w3.org/2000/svg">
<path fill-rule="evenodd" clip-rule="evenodd" d="M29.6331 0H2.36071C1.0585 0 0 1.03262 0 2.30769V29.6911C0 30.9649 1.0585 32 2.36071 32H29.6331C30.9378 32 32 30.9649 32 29.6911V2.30769C32 1.03262 30.9378 0 29.6331 0ZM4.92327 12.3077H9.84653V27.0769H4.92327V12.3077ZM7.38613 10.3385C5.75038 10.3385 4.43094 9.01538 4.43094 7.38462C4.43094 5.75385 5.75038 4.43077 7.38613 4.43077C9.01573 4.43077 10.3389 5.75385 10.3389 7.38462C10.3389 9.01538 9.01573 10.3385 7.38613 10.3385ZM27.078 27.0769H22.1547V19.6923C22.1547 17.6923 21.6156 15.792 19.6931 15.792C17.7693 15.792 17.2314 17.7218 17.2314 19.7145V27.0769H12.3082V12.3077H17.2314V14.0837H17.4776C18.1102 12.8837 19.6931 11.8634 21.575 11.8634C26.1167 11.8634 27.078 14.8468 27.078 18.4615V27.0769Z" fill="#FF7E03"/>
</svg>
